<?xml version="1.0" encoding="UTF-8"?>
<svg id="Layer_1" xmlns="http://www.w3.org/2000/svg" version="1.1" viewBox="0 0 196.1 126.39">
  <!-- Generator: Adobe Illustrator 30.2.1, SVG Export Plug-In . SVG Version: 2.1.1 Build 1)  -->
  <defs>
    <style>
      .st0 {
        fill: #fff;
      }
    </style>
  </defs>
  <path class="st0" d="M5.3,39.48h11.13c1.02,0,1.96.01,2.82.03.86.02,1.58.04,2.18.05.59.02,1,.05,1.23.09.56.07,1.12.25,1.7.53.58.28,1.09.64,1.53,1.09.45.45.8.97,1.06,1.56.26.59.37,1.25.33,1.95-.04.97-.42,1.83-1.14,2.59-.73.76-1.61,1.44-2.65,2.04-1.04.59-2.16,1.12-3.35,1.59-1.19.46-2.3.89-3.32,1.28-1.02.39-1.87.75-2.54,1.09-.67.33-1,.67-1,1,0,.56.4,1.04,1.2,1.45.8.41,1.8.82,3.01,1.23,1.21.41,2.51.86,3.9,1.34,1.39.48,2.71,1.12,3.93,1.9,1.23.78,2.26,1.75,3.1,2.9.84,1.15,1.29,2.57,1.37,4.24.07,1.45-.08,2.73-.47,3.85-.39,1.12-.91,2.08-1.56,2.9-.65.82-1.38,1.51-2.18,2.06s-1.61,1.01-2.43,1.37c-.82.35-1.58.61-2.29.78-.71.17-1.26.27-1.67.31-.3.04-.74.06-1.31.08-.58.02-1.24.03-1.98.03h-4.91c-1.97-.04-4.09.04-6.36,0H0v-39.33h5.3ZM5.69,76.36c.78.22,1.7.41,2.76.56,1.06.15,2.13.27,3.21.36,1.08.09,2.09.14,3.04.14s1.72-.06,2.31-.17c.78-.11,1.65-.35,2.59-.73.95-.37,1.85-.84,2.71-1.39.86-.56,1.59-1.21,2.2-1.95.61-.74.96-1.54,1.03-2.4.11-1.52-.22-2.75-1-3.68s-1.77-1.68-2.96-2.26c-1.19-.58-2.46-1.07-3.82-1.48-1.36-.41-2.58-.84-3.65-1.28-2.01-.86-3.36-1.74-4.05-2.65-.69-.91-1-1.91-.92-2.99.07-.63.39-1.21.95-1.73.56-.52,1.23-.98,2.01-1.39.78-.41,1.58-.78,2.4-1.12.82-.34,1.49-.63,2.01-.89.56-.3,1.16-.62,1.81-.98.65-.35,1.26-.79,1.81-1.31.56-.52,1-1.13,1.34-1.84.33-.71.46-1.56.39-2.57-.04-.48-.21-.97-.53-1.45-.32-.48-.73-.92-1.25-1.31-.52-.39-1.14-.72-1.84-.98-.71-.26-1.47-.41-2.29-.44l-10.27.05v35.87Z"/>
  <path class="st0" d="M31.69,56.91c.67-1.9,1.61-3.52,2.82-4.88,1.21-1.36,2.68-2.41,4.41-3.15,1.73-.74,3.63-1.12,5.72-1.12s3.96.35,5.63,1.06c1.67.71,3.1,1.7,4.3,2.98,1.19,1.28,2.11,2.84,2.76,4.66.65,1.82.98,3.85.98,6.08v2.01h-23.77c.11,1.53.41,2.96.89,4.3.48,1.34,1.14,2.49,1.98,3.46.84.97,1.88,1.73,3.12,2.29,1.25.56,2.67.84,4.27.84,1.23,0,2.32-.15,3.29-.45.97-.3,1.83-.73,2.59-1.31.76-.58,1.41-1.27,1.95-2.09.54-.82.98-1.71,1.31-2.68h3.91c-.82,3.09-2.37,5.51-4.66,7.28-2.29,1.77-5.12,2.65-8.51,2.65-2.12,0-4.04-.37-5.77-1.12-1.73-.74-3.2-1.81-4.41-3.18-1.21-1.37-2.15-3.01-2.82-4.91-.67-1.9-1-4.02-1-6.36s.33-4.46,1-6.36ZM54.45,61.43c-.11-1.49-.39-2.85-.84-4.1-.45-1.25-1.07-2.32-1.87-3.23-.8-.91-1.79-1.63-2.96-2.15-1.17-.52-2.54-.78-4.1-.78s-2.93.26-4.1.78c-1.17.52-2.19,1.25-3.04,2.18-.86.93-1.53,2.02-2.01,3.26-.48,1.25-.8,2.6-.95,4.04h19.86Z"/>
  <path class="st0" d="M60.75,56.91c.67-1.9,1.62-3.52,2.85-4.88,1.23-1.36,2.71-2.41,4.46-3.15,1.75-.74,3.68-1.12,5.8-1.12,1.75,0,3.36.25,4.83.75,1.47.5,2.77,1.21,3.91,2.12,1.13.91,2.1,2.03,2.9,3.35.8,1.32,1.37,2.8,1.7,4.43h-3.91c-.26-1.08-.66-2.06-1.2-2.96-.54-.89-1.2-1.65-1.98-2.29-.78-.63-1.69-1.12-2.73-1.48-1.04-.35-2.21-.53-3.52-.53-1.71,0-3.21.31-4.49.92-1.28.61-2.36,1.47-3.24,2.57-.87,1.1-1.53,2.38-1.95,3.85-.43,1.47-.64,3.06-.64,4.77s.21,3.31.64,4.8c.43,1.49,1.08,2.78,1.95,3.88s1.96,1.95,3.26,2.57c1.3.61,2.81.92,4.52.92,1.34,0,2.56-.2,3.65-.61,1.1-.41,2.04-.98,2.84-1.7.8-.72,1.46-1.58,1.98-2.57.52-.98.89-2.09,1.12-3.32h3.91c-.3,1.79-.83,3.39-1.59,4.8-.76,1.41-1.73,2.63-2.9,3.65-1.17,1.02-2.52,1.81-4.05,2.34-1.53.54-3.2.81-5.02.81-2.16,0-4.1-.37-5.83-1.12-1.73-.74-3.21-1.81-4.43-3.18-1.23-1.37-2.18-3.01-2.85-4.91-.67-1.9-1-4.02-1-6.36s.33-4.46,1-6.36Z"/>
  <path class="st0" d="M90.6,65c1.56-1.37,4.02-2.34,7.36-2.9l12.05-2.12v-.34c0-2.83-.77-4.95-2.32-6.36-1.54-1.41-3.65-2.12-6.33-2.12s-4.65.62-6.14,1.87c-1.49,1.25-2.42,2.98-2.79,5.22h-3.79c.19-1.6.61-3.04,1.28-4.32.67-1.28,1.54-2.38,2.62-3.29,1.08-.91,2.37-1.62,3.88-2.12,1.51-.5,3.19-.75,5.05-.75,3.87,0,6.88,1.06,9.04,3.18,2.16,2.12,3.24,5.1,3.24,8.93v18.95h-3.46v-6.17c-.45.86-1.05,1.67-1.82,2.43-.76.76-1.66,1.42-2.71,1.98-1.04.56-2.2,1-3.49,1.31-1.28.32-2.63.47-4.04.47s-2.8-.19-4.04-.56c-1.25-.37-2.31-.91-3.18-1.62-.87-.71-1.55-1.57-2.04-2.6-.48-1.02-.73-2.2-.73-3.54,0-2.31.78-4.15,2.34-5.52ZM94.09,74.29c1.28.88,2.95,1.31,4.99,1.31,1.64,0,3.12-.24,4.46-.72,1.34-.48,2.48-1.15,3.43-2.01.95-.86,1.69-1.85,2.23-2.99.54-1.13.81-2.37.81-3.71v-3.07l-11.55,2.06c-2.38.41-4.03,1.03-4.94,1.87-.91.84-1.37,1.94-1.37,3.32,0,1.75.64,3.06,1.93,3.93Z"/>
  <path class="st0" d="M116.6,48.37h3.68v17.91c0,1.41.16,2.69.47,3.82.32,1.14.8,2.1,1.45,2.9.65.8,1.46,1.4,2.43,1.81.97.41,2.12.61,3.46.61,1.41,0,2.7-.25,3.85-.75,1.15-.5,2.13-1.19,2.93-2.06.8-.87,1.41-1.91,1.84-3.1.43-1.19.64-2.49.64-3.91v-17.24h3.68v30.44h-3.61l.09-6.96c-.34,1.15-.83,2.17-1.48,3.04-.65.88-1.42,1.6-2.32,2.18-.89.58-1.89,1.01-2.99,1.31-1.1.3-2.26.45-3.49.45-1.71,0-3.23-.27-4.55-.81-1.32-.54-2.43-1.3-3.32-2.29-.89-.98-1.58-2.18-2.06-3.57-.48-1.39-.73-2.93-.73-4.6v-19.19Z"/>
  <path class="st0" d="M146.28,68.62c.11,2.05.96,3.69,2.54,4.94,1.58,1.25,3.86,1.87,6.83,1.87,1.15,0,2.22-.1,3.21-.31.98-.2,1.85-.52,2.59-.95.74-.43,1.33-.99,1.76-1.67.43-.69.64-1.5.64-2.43s-.22-1.75-.67-2.34c-.45-.6-1.08-1.08-1.9-1.45-.82-.37-1.79-.67-2.9-.89-1.12-.22-2.32-.43-3.63-.61-1.34-.22-2.7-.48-4.07-.78-1.38-.3-2.61-.73-3.71-1.31-1.1-.58-1.98-1.36-2.65-2.34-.67-.98-1-2.24-1-3.76,0-1.34.26-2.55.78-3.63s1.27-2,2.26-2.76c.98-.76,2.18-1.36,3.57-1.79,1.39-.43,2.95-.64,4.66-.64,1.86,0,3.53.25,5.02.75,1.49.5,2.75,1.18,3.79,2.04,1.04.86,1.87,1.88,2.48,3.07.61,1.19.99,2.48,1.14,3.85h-3.79c-.22-1.9-1.1-3.42-2.62-4.57-1.53-1.15-3.55-1.73-6.08-1.73-1.15,0-2.18.12-3.1.36-.91.24-1.69.6-2.34,1.06-.65.46-1.14,1-1.48,1.62-.34.61-.5,1.29-.5,2.04,0,.97.24,1.75.73,2.34.48.59,1.14,1.07,1.98,1.42.84.35,1.79.65,2.85.89,1.06.24,2.15.46,3.26.64,1.53.22,2.99.49,4.41.81,1.41.32,2.66.77,3.74,1.37,1.08.6,1.94,1.39,2.6,2.37.65.99.98,2.28.98,3.88s-.31,2.84-.92,3.93c-.61,1.1-1.47,2.02-2.57,2.76-1.1.74-2.37,1.29-3.82,1.65s-3.01.53-4.69.53c-2.04,0-3.87-.25-5.47-.75-1.6-.5-2.97-1.21-4.1-2.12-1.14-.91-2-1.99-2.6-3.24-.59-1.25-.93-2.61-1-4.1h3.79Z"/>
  <path class="st0" d="M169.49,56.91c.67-1.9,1.61-3.52,2.82-4.88,1.21-1.36,2.68-2.41,4.41-3.15,1.73-.74,3.64-1.12,5.72-1.12s3.96.35,5.63,1.06c1.67.71,3.11,1.7,4.3,2.98,1.19,1.28,2.11,2.84,2.76,4.66.65,1.82.97,3.85.97,6.08v2.01h-23.77c.11,1.53.41,2.96.89,4.3.48,1.34,1.14,2.49,1.98,3.46.84.97,1.88,1.73,3.12,2.29,1.25.56,2.67.84,4.27.84,1.23,0,2.32-.15,3.29-.45.97-.3,1.83-.73,2.6-1.31.76-.58,1.41-1.27,1.95-2.09.54-.82.98-1.71,1.31-2.68h3.9c-.82,3.09-2.37,5.51-4.66,7.28-2.29,1.77-5.13,2.65-8.51,2.65-2.12,0-4.04-.37-5.77-1.12-1.73-.74-3.2-1.81-4.41-3.18-1.21-1.37-2.15-3.01-2.82-4.91-.67-1.9-1-4.02-1-6.36s.33-4.46,1-6.36ZM192.25,61.43c-.11-1.49-.39-2.85-.84-4.1-.45-1.25-1.07-2.32-1.87-3.23-.8-.91-1.79-1.63-2.96-2.15-1.17-.52-2.54-.78-4.1-.78s-2.93.26-4.1.78c-1.17.52-2.19,1.25-3.04,2.18-.86.93-1.53,2.02-2.01,3.26-.48,1.25-.8,2.6-.95,4.04h19.86Z"/>
  <path class="st0" d="M27.31,86.48l6.86,32.75c.04.3.11.71.22,1.23.11.52.3,1.03.56,1.53.26.5.62.94,1.09,1.31.46.37,1.05.56,1.76.56,1.12.04,2.06-.41,2.85-1.34.78-.93,1.08-2.34.89-4.24l-4.24-25.55c-.19-1.41-.05-2.71.39-3.9.45-1.19,1.45-1.93,3.01-2.23.71-.15,1.45-.22,2.23-.22,2.04,0,3.71.68,4.99,2.04,1.28,1.36,2.26,3.54,2.93,6.55l4.24,26.39c.04.22.11.5.22.84.11.33.27.65.47.95.2.3.45.56.72.78.28.22.62.35,1.03.39.74.11,1.39-.08,1.95-.59.56-.5.93-1.18,1.12-2.04.3-1.52.59-3.03.86-4.52.28-1.49.53-2.87.75-4.16.22-1.28.43-2.44.61-3.49.19-1.04.33-1.88.45-2.51.22-1.41.29-2.79.19-4.13-.09-1.34-.3-2.62-.61-3.85-.32-1.23-.72-2.38-1.2-3.46-.48-1.08-1-2.08-1.56-3.01-1.27-2.19-2.77-4.22-4.52-6.08h9.88c.52,1.08.94,2.7,1.25,4.85.32,2.16.25,4.57-.19,7.25-.11.63-.28,1.54-.5,2.73-.22,1.19-.47,2.52-.75,3.99-.28,1.47-.59,3.04-.95,4.71-.35,1.67-.7,3.33-1.03,4.97-.33,1.64-.67,3.2-1,4.69-.33,1.49-.63,2.79-.89,3.91-.15.63-.56,1.23-1.23,1.81-.67.58-1.71.9-3.13.98-2.79.15-4.85-.36-6.19-1.53-1.34-1.17-2.14-2.76-2.4-4.77l-4.41-27.67c-.3-1.37-.76-2.32-1.39-2.85-.63-.52-1.39-.69-2.29-.5-.63.15-1.09.4-1.37.75-.28.35-.46.75-.56,1.2s-.1.9-.03,1.37c.07.46.13.88.17,1.25l4.18,25.39c.11.93.1,1.8-.03,2.62-.13.82-.39,1.53-.78,2.15-.39.61-.94,1.12-1.65,1.51-.71.39-1.6.64-2.68.75-1.15.11-2.25.09-3.29-.05-1.04-.15-1.98-.46-2.82-.92-.84-.46-1.54-1.11-2.12-1.93-.58-.82-1-1.82-1.25-3.01l-7.25-33.64h6.41Z"/>
  <path class="st0" d="M65.69,115.17c.07-1.66.6-3.03,1.58-4.1.98-1.07,2.17-1.96,3.58-2.66,1.4-.7,2.93-1.27,4.57-1.69,1.64-.43,3.16-.81,4.54-1.17,1.39-.35,2.54-.7,3.46-1.05.92-.35,1.39-.8,1.39-1.36,0-.33-.38-.69-1.14-1.08s-1.71-.8-2.85-1.25-2.39-.94-3.74-1.5c-1.35-.55-2.6-1.17-3.74-1.86-1.15-.68-2.11-1.44-2.88-2.27-.78-.83-1.16-1.76-1.16-2.8,0-.63.16-1.2.47-1.72.31-.52.72-.98,1.22-1.39.5-.41,1.05-.77,1.66-1.08.61-.31,1.21-.56,1.8-.75.96-.29,2.13-.53,3.52-.72,1.39-.18,2.89-.28,4.52-.28,2.22,0,4.49.19,6.81.58,2.33.39,4.43,1.06,6.32,2.02l-3.21,5.65c-.56-1.37-1.2-2.52-1.94-3.46-.74-.94-1.52-1.7-2.35-2.27-.83-.57-1.68-.99-2.55-1.25-.87-.26-1.73-.39-2.58-.39s-1.74.12-2.55.36c-.81.24-1.55.56-2.22.97-.66.41-1.24.89-1.72,1.44-.48.55-.83,1.15-1.05,1.77-.41,1.15-.43,2.17-.08,3.08.35.91.88,1.68,1.58,2.33.7.65,1.5,1.19,2.38,1.63.89.44,1.64.81,2.27,1.11.59.26,1.31.56,2.16.91s1.66.73,2.44,1.13c.78.41,1.46.87,2.05,1.39.59.52.9,1.07.94,1.66.07.52.07.97,0,1.36s-.28.75-.61,1.08c-.33.33-.83.66-1.5,1-.66.33-1.57.72-2.71,1.16-1.22.44-2.54.84-3.96,1.19-1.42.35-2.77.75-4.05,1.19-1.27.44-2.41.96-3.41,1.55-1,.59-1.68,1.35-2.05,2.27-.26.7-.21,1.58.14,2.63.35,1.05.99,2.07,1.91,3.05.92.98,2.1,1.82,3.52,2.52,1.42.7,3.06,1.05,4.9,1.05,2.11,0,4.45-.59,7.04-1.77,2.58-1.18,5.34-3.25,8.26-6.21l-2.16,7.2c-1.22.37-2.53.7-3.93,1-1.18.22-2.55.43-4.1.64-1.55.2-3.2.3-4.93.3-.66,0-1.34-.03-2.02-.08-.68-.06-1.38-.12-2.08-.19-.44-.07-1.05-.19-1.83-.36-.78-.17-1.61-.42-2.49-.75-.89-.33-1.79-.77-2.71-1.3-.92-.54-1.75-1.2-2.47-2-.72-.79-1.29-1.73-1.72-2.8-.42-1.07-.6-2.31-.52-3.71Z"/>
  <path class="st0" d="M107.93,111.99c1.56-1.37,4.02-2.34,7.36-2.9l12.05-2.12v-.34c0-2.83-.77-4.95-2.31-6.36-1.55-1.41-3.66-2.12-6.33-2.12s-4.65.62-6.14,1.87c-1.49,1.25-2.42,2.98-2.79,5.22h-3.79c.19-1.6.61-3.04,1.28-4.32.67-1.28,1.54-2.38,2.62-3.29,1.08-.91,2.37-1.62,3.88-2.12,1.51-.5,3.19-.75,5.05-.75,3.87,0,6.88,1.06,9.04,3.18,2.16,2.12,3.24,5.1,3.24,8.93v18.95h-3.47v-6.17c-.43.86-1.04,1.67-1.8,2.43-.76.76-1.67,1.42-2.71,1.98-1.04.56-2.2,1-3.49,1.31-1.28.32-2.63.47-4.05.47s-2.8-.19-4.04-.56c-1.25-.37-2.31-.91-3.18-1.62s-1.55-1.57-2.04-2.6c-.48-1.02-.72-2.2-.72-3.54,0-2.31.78-4.15,2.34-5.52ZM111.41,121.27c1.28.88,2.95,1.31,4.99,1.31,1.64,0,3.13-.24,4.46-.72,1.34-.48,2.48-1.15,3.43-2.01.95-.86,1.69-1.85,2.23-2.99.54-1.13.81-2.37.81-3.71v-3.07l-11.55,2.06c-2.38.41-4.03,1.03-4.94,1.87-.91.84-1.37,1.94-1.37,3.32,0,1.75.64,3.06,1.93,3.93Z"/>
  <path class="st0" d="M134.2,95.36h3.35l.17,6.47c.63-2.23,1.64-3.87,3.01-4.91,1.38-1.04,3.16-1.56,5.36-1.56h3.24v3.85h-3.51c-1.27,0-2.39.22-3.38.64s-1.81,1.02-2.48,1.79c-.67.76-1.18,1.67-1.53,2.71-.35,1.04-.53,2.18-.53,3.4v18.06h-3.68v-30.44Z"/>
  <path class="st0" d="M148.6,103.9c.67-1.9,1.61-3.52,2.82-4.88,1.21-1.36,2.68-2.41,4.41-3.15,1.73-.74,3.64-1.12,5.72-1.12s3.96.35,5.63,1.06c1.67.71,3.11,1.7,4.3,2.98,1.19,1.28,2.11,2.84,2.76,4.66.65,1.82.98,3.85.98,6.08v2.01h-23.77c.11,1.53.41,2.96.89,4.3.48,1.34,1.14,2.49,1.98,3.46.84.97,1.88,1.73,3.12,2.29,1.25.56,2.67.84,4.27.84,1.23,0,2.32-.15,3.29-.45.97-.3,1.83-.73,2.6-1.31.76-.58,1.41-1.27,1.95-2.09.54-.82.98-1.71,1.31-2.68h3.9c-.82,3.09-2.37,5.51-4.66,7.28-2.29,1.77-5.12,2.65-8.51,2.65-2.12,0-4.04-.37-5.77-1.12-1.73-.74-3.2-1.81-4.41-3.18-1.21-1.37-2.15-3.01-2.82-4.91-.67-1.9-1-4.02-1-6.36s.33-4.46,1-6.36ZM171.36,108.41c-.11-1.49-.39-2.85-.84-4.1-.45-1.25-1.07-2.32-1.87-3.23-.8-.91-1.79-1.63-2.96-2.15-1.17-.52-2.54-.78-4.1-.78s-2.93.26-4.1.78c-1.17.52-2.19,1.25-3.04,2.18-.86.93-1.53,2.02-2.01,3.26-.48,1.25-.8,2.6-.95,4.04h19.86Z"/>
  <polygon class="st0" points="76.01 39.5 68.38 0 76.01 0 83.63 39.47 76.01 39.5"/>
  <polygon class="st0" points="120.1 39.5 112.47 0 120.1 0 127.72 39.47 120.1 39.5"/>
  <polygon class="st0" points="91.26 39.5 98.89 0 91.26 0 83.63 39.47 91.26 39.5"/>
  <polygon class="st0" points="106.52 39.5 98.89 0 106.52 0 114.14 39.47 106.52 39.5"/>
</svg>